<svg id="Слой_3" xmlns="http://www.w3.org/2000/svg" viewBox="0 0 219.6 156.5"><style>.st0{fill:#00ccc0}.st1{font-family:&apos;Kollektif&apos;}.st2{font-size:54.9616px}.st3{fill:#fd6377}</style><text transform="matrix(.999 0 0 1 53.673 125.087)" class="st0 st1 st2" id="Слой_8">IDIS</text><path class="st0" d="M165.8 156.5H40.7C18.2 156.5 0 138.3 0 115.8c0-16.9 10.6-31.9 26.3-38.2-.6-4.4-1.3-8.1-1.3-11.9C25 29.4 54.4 0 90.7 0c22.5 0 43.2 11.3 55 30.1 1.3 1.3.6 3.1-.6 4.4-1.3 1.3-3.1.6-4.4-.6-11.2-17.1-29.4-27.1-50-27.1-32.5 0-59.4 26.9-59.4 59.5 0 4.4.6 8.8 1.9 13.1.6 1.9-.6 3.1-1.9 3.8-14.4 4.4-24.4 17.5-24.4 33.2 0 18.8 15.6 34.4 34.4 34.4h125.1c25.6 0 46.9-21.3 46.9-47s-21.3-47-46.9-47c-10.6 0-21.3 3.8-30 10.6-1.3 1.3-3.1.6-4.4-.6-1.3-1.3-.6-3.1.6-4.4 9.4-8.1 21.3-11.9 33.8-11.9 29.4 0 53.2 23.8 53.2 53.2-.7 29-24.4 52.8-53.8 52.8z" id="Слой_4"/><path class="st3" d="M55.6 60.4l2.9-6.4c.2-.4.6-.6 1-.6s.8.3.9.7L65 66.9l4.3-9.4c.1-.3.4-.5.8-.6.3-.1.7.1.9.3l2.9 3.2h8.9c2-4.4 1.7-7.8 1.1-10-1.3-4.5-5.4-7.6-10-7.6-.7 0-1.3.1-2 .2-2.7.5-4.9 1.9-6.3 4.1-.3.4-.5.8-.7 1.3-.2-.5-.5-.9-.7-1.3-1.4-2.2-3.6-3.6-6.3-4.1-.7-.1-1.3-.2-2-.2-4.7 0-8.8 3.1-10 7.6-.6 2.2-.9 5.7 1.1 10h8.6z"/><path class="st3" d="M73.5 62.5c-.3 0-.6-.1-.8-.3l-2.2-2.3-4.7 10.3c-.2.4-.5.6-1 .6-.4 0-.8-.3-.9-.7l-4.6-12.8-2.1 4.7c-.2.4-.5.6-1 .6H48c3 5.2 8.5 10.3 16.3 15.3.2.1.4.2.6.2s.4-.1.6-.2c7.8-5 13.3-10.2 16.3-15.3l-8.3-.1z"/></svg>